<svg xmlns="http://www.w3.org/2000/svg" xmlns:xlink="http://www.w3.org/1999/xlink" width="350" zoomAndPan="magnify" viewBox="0 0 262.5 52.499999" height="70" preserveAspectRatio="xMidYMid meet" version="1.0"><defs><g/><clipPath id="3180b78cfb"><path d="M 155.953125 5.5625 L 195.40625 5.5625 L 195.40625 45 L 155.953125 45 Z M 155.953125 5.5625 " clip-rule="nonzero"/></clipPath></defs><g clip-path="url(#3180b78cfb)"><path fill="#e48f0f" d="M 185.101562 32.089844 C 186.679688 29.871094 187.515625 27.09375 187.21875 24.105469 C 186.6875 18.71875 182.402344 14.300781 177.03125 13.636719 C 169.371094 12.6875 162.929688 19.125 163.878906 26.789062 C 164.542969 32.160156 168.960938 36.445312 174.347656 36.976562 C 177.335938 37.273438 180.117188 36.433594 182.332031 34.855469 L 191.820312 44.292969 C 192.203125 44.675781 192.707031 44.867188 193.207031 44.867188 C 193.640625 44.867188 194.074219 44.722656 194.429688 44.4375 C 195.359375 43.691406 195.304688 42.238281 194.460938 41.394531 Z M 175.53125 33.121094 C 171.207031 33.121094 167.703125 29.613281 167.703125 25.289062 C 167.703125 20.964844 171.207031 17.457031 175.53125 17.457031 C 179.859375 17.457031 183.363281 20.964844 183.363281 25.289062 C 183.363281 29.613281 179.859375 33.121094 175.53125 33.121094 Z M 193.152344 5.710938 L 157.914062 5.710938 C 156.832031 5.710938 155.953125 6.585938 155.953125 7.667969 L 155.953125 37.035156 C 155.953125 38.117188 156.832031 38.992188 157.914062 38.992188 L 174.554688 38.992188 L 174.554688 38.941406 C 174.421875 38.933594 174.289062 38.9375 174.152344 38.925781 C 172.867188 38.796875 171.632812 38.480469 170.472656 38.015625 L 157.914062 38.015625 C 157.371094 38.015625 156.933594 37.574219 156.933594 37.035156 L 156.933594 10.605469 L 194.132812 10.605469 L 194.132812 37.035156 C 194.132812 37.382812 193.941406 37.671875 193.667969 37.847656 L 194.378906 38.550781 C 194.820312 38.195312 195.109375 37.652344 195.109375 37.035156 L 195.109375 7.667969 C 195.109375 6.585938 194.234375 5.710938 193.152344 5.710938 Z M 158.890625 8.160156 L 157.914062 8.160156 C 157.640625 8.160156 157.421875 7.941406 157.421875 7.667969 C 157.421875 7.398438 157.640625 7.179688 157.914062 7.179688 L 158.890625 7.179688 C 159.160156 7.179688 159.378906 7.398438 159.378906 7.667969 C 159.378906 7.941406 159.160156 8.160156 158.890625 8.160156 Z M 161.828125 8.160156 L 160.847656 8.160156 C 160.578125 8.160156 160.359375 7.941406 160.359375 7.667969 C 160.359375 7.398438 160.578125 7.179688 160.847656 7.179688 L 161.828125 7.179688 C 162.097656 7.179688 162.316406 7.398438 162.316406 7.667969 C 162.316406 7.941406 162.097656 8.160156 161.828125 8.160156 Z M 164.765625 8.160156 L 163.785156 8.160156 C 163.515625 8.160156 163.296875 7.941406 163.296875 7.667969 C 163.296875 7.398438 163.515625 7.179688 163.785156 7.179688 L 164.765625 7.179688 C 165.035156 7.179688 165.253906 7.398438 165.253906 7.667969 C 165.253906 7.941406 165.035156 8.160156 164.765625 8.160156 Z M 164.765625 8.160156 " fill-opacity="1" fill-rule="nonzero"/></g><g fill="#e48f0f" fill-opacity="1"><g transform="translate(20.136561, 36.767992)"><g><path d="M 26.625 -25.328125 L 26.625 0 L 19.453125 0 L 19.453125 -9.875 L 9.6875 -9.875 L 9.6875 0 L 2.53125 0 L 2.53125 -25.328125 L 9.6875 -25.328125 L 9.6875 -15.8125 L 19.453125 -15.8125 L 19.453125 -25.328125 Z M 26.625 -25.328125 "/></g></g></g><g fill="#e48f0f" fill-opacity="1"><g transform="translate(49.287158, 36.767992)"><g><path d="M 2.53125 -25.328125 L 9.6875 -25.328125 L 9.6875 0 L 2.53125 0 Z M 2.53125 -25.328125 "/></g></g></g><g fill="#e48f0f" fill-opacity="1"><g transform="translate(61.547776, 36.767992)"><g><path d="M 13.59375 -6.734375 L 9.6875 -6.734375 L 9.6875 0 L 2.53125 0 L 2.53125 -25.328125 L 14.109375 -25.328125 C 16.398438 -25.328125 18.390625 -24.945312 20.078125 -24.1875 C 21.765625 -23.425781 23.066406 -22.335938 23.984375 -20.921875 C 24.898438 -19.515625 25.359375 -17.859375 25.359375 -15.953125 C 25.359375 -14.117188 24.925781 -12.519531 24.0625 -11.15625 C 23.207031 -9.789062 21.988281 -8.722656 20.40625 -7.953125 L 25.859375 0 L 18.1875 0 Z M 18.125 -15.953125 C 18.125 -17.128906 17.75 -18.039062 17 -18.6875 C 16.25 -19.34375 15.140625 -19.671875 13.671875 -19.671875 L 9.6875 -19.671875 L 9.6875 -12.265625 L 13.671875 -12.265625 C 15.140625 -12.265625 16.25 -12.582031 17 -13.21875 C 17.75 -13.851562 18.125 -14.765625 18.125 -15.953125 Z M 18.125 -15.953125 "/></g></g></g><g fill="#e48f0f" fill-opacity="1"><g transform="translate(88.311349, 36.767992)"><g><path d="M 22.859375 -5.53125 L 22.859375 0 L 2.53125 0 L 2.53125 -25.328125 L 22.390625 -25.328125 L 22.390625 -19.78125 L 9.625 -19.78125 L 9.625 -15.515625 L 20.875 -15.515625 L 20.875 -10.171875 L 9.625 -10.171875 L 9.625 -5.53125 Z M 22.859375 -5.53125 "/></g></g></g><g fill="#e48f0f" fill-opacity="1"><g transform="translate(112.615578, 36.767992)"><g/></g></g><g fill="#e48f0f" fill-opacity="1"><g transform="translate(123.140177, 36.767992)"><g><path d="M 26.625 -25.328125 L 26.625 0 L 20.71875 0 L 9.546875 -13.484375 L 9.546875 0 L 2.53125 0 L 2.53125 -25.328125 L 8.421875 -25.328125 L 19.609375 -11.828125 L 19.609375 -25.328125 Z M 26.625 -25.328125 "/></g></g></g><g fill="#e48f0f" fill-opacity="1"><g transform="translate(199.279475, 37.112902)"><g><path d="M 42.25 -25.328125 L 34.03125 0 L 26.375 0 L 21.515625 -15.40625 L 16.453125 0 L 8.796875 0 L 0.578125 -25.328125 L 7.953125 -25.328125 L 13.0625 -9.15625 L 18.40625 -25.328125 L 25 -25.328125 L 30.09375 -9 L 35.40625 -25.328125 Z M 42.25 -25.328125 "/></g></g></g></svg>